<svg xmlns="http://www.w3.org/2000/svg" xmlns:xlink="http://www.w3.org/1999/xlink" width="136" height="136" fill="none" xmlns:v="https://vecta.io/nano"><g fill="#2d2d2d"><path d="M5.75 2.875c0 1.588-1.287 2.875-2.875 2.875S0 4.463 0 2.875 1.287 0 2.875 0 5.75 1.287 5.75 2.875zm14.472 0c0 1.588-1.287 2.875-2.875 2.875s-2.875-1.287-2.875-2.875S15.759 0 17.347 0s2.875 1.287 2.875 2.875zm14.473 0c0 1.588-1.287 2.875-2.875 2.875s-2.875-1.287-2.875-2.875S30.232 0 31.82 0s2.875 1.287 2.875 2.875zm14.472 0c0 1.588-1.287 2.875-2.875 2.875s-2.875-1.287-2.875-2.875S44.704 0 46.292 0s2.875 1.287 2.875 2.875zm14.472 0c0 1.588-1.287 2.875-2.875 2.875s-2.875-1.287-2.875-2.875S59.176 0 60.764 0s2.875 1.287 2.875 2.875zm14.472 0c0 1.588-1.287 2.875-2.875 2.875s-2.875-1.287-2.875-2.875S73.648 0 75.236 0s2.875 1.287 2.875 2.875zm14.472 0c0 1.588-1.287 2.875-2.875 2.875s-2.875-1.287-2.875-2.875S88.121 0 89.708 0s2.875 1.287 2.875 2.875zm14.473 0c0 1.588-1.288 2.875-2.875 2.875s-2.876-1.287-2.876-2.875S102.593 0 104.181 0s2.875 1.287 2.875 2.875zm14.472 0c0 1.588-1.287 2.875-2.875 2.875s-2.875-1.287-2.875-2.875S117.065 0 118.653 0s2.875 1.287 2.875 2.875zm14.472 0c0 1.588-1.287 2.875-2.875 2.875s-2.875-1.287-2.875-2.875S131.537 0 133.125 0 136 1.287 136 2.875zM5.75 17.347c0 1.588-1.287 2.875-2.875 2.875S0 18.935 0 17.347s1.287-2.875 2.875-2.875 2.875 1.287 2.875 2.875z"/><use xlink:href="#B"/><use xlink:href="#B" x="14.473"/><use xlink:href="#B" x="28.945"/><use xlink:href="#B" x="43.417"/><use xlink:href="#B" x="57.889"/><use xlink:href="#B" x="72.361"/><use xlink:href="#C"/><use xlink:href="#B" x="101.306"/><path d="M136 17.347c0 1.588-1.287 2.875-2.875 2.875s-2.875-1.287-2.875-2.875 1.287-2.875 2.875-2.875S136 15.759 136 17.347zM5.75 31.82c0 1.588-1.287 2.875-2.875 2.875S0 33.407 0 31.82s1.287-2.875 2.875-2.875S5.75 30.232 5.75 31.82z"/><use xlink:href="#B" y="14.473"/><use xlink:href="#B" x="14.473" y="14.473"/><use xlink:href="#B" x="28.945" y="14.473"/><use xlink:href="#B" x="43.417" y="14.473"/><use xlink:href="#B" x="57.889" y="14.473"/><use xlink:href="#B" x="72.361" y="14.473"/><use xlink:href="#C" y="14.473"/><use xlink:href="#B" x="101.306" y="14.473"/><path d="M136 31.82c0 1.588-1.287 2.875-2.875 2.875s-2.875-1.287-2.875-2.875 1.287-2.875 2.875-2.875S136 30.232 136 31.82zM5.75 46.292c0 1.588-1.287 2.875-2.875 2.875S0 47.88 0 46.292s1.287-2.875 2.875-2.875 2.875 1.287 2.875 2.875z"/><use xlink:href="#B" y="28.945"/><use xlink:href="#B" x="14.473" y="28.945"/><use xlink:href="#B" x="28.945" y="28.945"/><use xlink:href="#B" x="43.417" y="28.945"/><use xlink:href="#B" x="57.889" y="28.945"/><use xlink:href="#B" x="72.361" y="28.945"/><use xlink:href="#C" y="28.945"/><use xlink:href="#B" x="101.306" y="28.945"/><path d="M136 46.292c0 1.588-1.287 2.875-2.875 2.875s-2.875-1.287-2.875-2.875 1.287-2.875 2.875-2.875S136 44.704 136 46.292zM5.75 60.764c0 1.588-1.287 2.875-2.875 2.875S0 62.352 0 60.764s1.287-2.875 2.875-2.875 2.875 1.287 2.875 2.875z"/><use xlink:href="#B" y="43.417"/><use xlink:href="#B" x="14.473" y="43.417"/><use xlink:href="#B" x="28.945" y="43.417"/><use xlink:href="#B" x="43.417" y="43.417"/><use xlink:href="#B" x="57.889" y="43.417"/><use xlink:href="#B" x="72.361" y="43.417"/><use xlink:href="#C" y="43.417"/><use xlink:href="#B" x="101.306" y="43.417"/><path d="M136 60.764c0 1.588-1.287 2.875-2.875 2.875s-2.875-1.287-2.875-2.875 1.287-2.875 2.875-2.875S136 59.176 136 60.764zM5.75 75.236c0 1.588-1.287 2.875-2.875 2.875S0 76.824 0 75.236s1.287-2.875 2.875-2.875 2.875 1.287 2.875 2.875z"/><use xlink:href="#B" y="57.889"/><use xlink:href="#B" x="14.473" y="57.889"/><use xlink:href="#B" x="28.945" y="57.889"/><use xlink:href="#B" x="43.417" y="57.889"/><use xlink:href="#B" x="57.889" y="57.889"/><use xlink:href="#B" x="72.361" y="57.889"/><use xlink:href="#C" y="57.889"/><use xlink:href="#B" x="101.306" y="57.889"/><path d="M136 75.236c0 1.588-1.287 2.875-2.875 2.875s-2.875-1.287-2.875-2.875 1.287-2.875 2.875-2.875S136 73.648 136 75.236zM5.75 89.708c0 1.588-1.287 2.875-2.875 2.875S0 91.296 0 89.708s1.287-2.875 2.875-2.875S5.75 88.12 5.75 89.708z"/><use xlink:href="#B" y="72.361"/><use xlink:href="#B" x="14.473" y="72.361"/><use xlink:href="#B" x="28.945" y="72.361"/><use xlink:href="#B" x="43.417" y="72.361"/><use xlink:href="#B" x="57.889" y="72.361"/><use xlink:href="#B" x="72.361" y="72.361"/><use xlink:href="#C" y="72.361"/><use xlink:href="#B" x="101.306" y="72.361"/><path d="M136 89.708c0 1.588-1.287 2.875-2.875 2.875s-2.875-1.287-2.875-2.875 1.287-2.875 2.875-2.875S136 88.121 136 89.708zM5.75 104.181c0 1.587-1.287 2.875-2.875 2.875S0 105.768 0 104.181s1.287-2.876 2.875-2.876 2.875 1.288 2.875 2.876z"/><use xlink:href="#D"/><use xlink:href="#D" x="14.473"/><use xlink:href="#D" x="28.945"/><use xlink:href="#D" x="43.417"/><use xlink:href="#D" x="57.889"/><use xlink:href="#D" x="72.361"/><path d="M107.056 104.181c0 1.587-1.288 2.875-2.875 2.875s-2.876-1.288-2.876-2.875 1.288-2.876 2.876-2.876 2.875 1.288 2.875 2.876z"/><use xlink:href="#D" x="101.306"/><use xlink:href="#D" x="115.778"/><path d="M5.75 118.653c0 1.588-1.287 2.875-2.875 2.875S0 120.241 0 118.653s1.287-2.875 2.875-2.875 2.875 1.287 2.875 2.875z"/><use xlink:href="#B" y="101.306"/><use xlink:href="#B" x="14.473" y="101.306"/><use xlink:href="#B" x="28.945" y="101.306"/><use xlink:href="#B" x="43.417" y="101.306"/><use xlink:href="#B" x="57.889" y="101.306"/><use xlink:href="#B" x="72.361" y="101.306"/><use xlink:href="#C" y="101.306"/><use xlink:href="#B" x="101.306" y="101.306"/><use xlink:href="#B" x="115.778" y="101.306"/><path d="M5.75 133.125c0 1.588-1.287 2.875-2.875 2.875S0 134.713 0 133.125s1.287-2.875 2.875-2.875 2.875 1.287 2.875 2.875z"/><use xlink:href="#B" y="115.778"/><use xlink:href="#B" x="14.473" y="115.778"/><use xlink:href="#B" x="28.945" y="115.778"/><use xlink:href="#B" x="43.417" y="115.778"/><use xlink:href="#B" x="57.889" y="115.778"/><use xlink:href="#B" x="72.361" y="115.778"/><use xlink:href="#C" y="115.778"/><use xlink:href="#B" x="101.306" y="115.778"/><use xlink:href="#B" x="115.778" y="115.778"/></g><defs ><path id="B" d="M20.222 17.347c0 1.588-1.287 2.875-2.875 2.875s-2.875-1.287-2.875-2.875 1.287-2.875 2.875-2.875 2.875 1.287 2.875 2.875z"/><path id="C" d="M107.056 17.347c0 1.588-1.288 2.875-2.875 2.875s-2.876-1.287-2.876-2.875 1.288-2.875 2.876-2.875 2.875 1.287 2.875 2.875z"/><path id="D" d="M20.222 104.181c0 1.587-1.287 2.875-2.875 2.875s-2.875-1.288-2.875-2.875 1.287-2.876 2.875-2.876 2.875 1.288 2.875 2.876z"/></defs></svg>