<svg width="32" height="32" viewBox="0 0 32 32" fill="none" xmlns="http://www.w3.org/2000/svg">
<path d="M8.31332 22.4372V9.09219L13.4517 4.03512V22.4372C13.4517 22.8118 13.4327 23.1396 13.3946 23.4205C13.2995 23.8139 13.1948 24.2821 13.0806 24.8253C12.9855 25.3872 12.681 25.9303 12.1671 26.4548C11.6723 26.998 11.1014 27.3913 10.4543 27.6348C9.8263 27.8783 9.12215 28 8.34187 28H6.25796V23.561H7.45692C7.78045 23.561 7.99931 23.4393 8.1135 23.1958L8.31332 22.4372Z" fill="white"/>
<path d="M25.8769 17.8297V22.4372L23.5361 22.4653C21.024 22.4653 18.9115 21.585 17.1987 19.8244C15.505 18.0638 14.6581 15.938 14.6581 13.4469C14.6581 10.8622 15.6572 8.65203 17.6555 6.8165C19.6537 4.98098 22.0231 4.06321 24.7636 4.06321L31.8718 4.03512L27.0474 8.81124H24.5352C23.2411 8.81124 22.0897 9.26075 21.0811 10.1598C20.0915 11.0401 19.5967 12.1264 19.5967 13.4188C19.5967 14.5988 19.9963 15.6289 20.7956 16.5092C21.614 17.3895 22.6226 17.8297 23.8216 17.8297H25.8769Z" fill="white"/>
<path d="M6.77183 8.8288L1 4H32L22.0031 8.8288L6.77183 8.8288Z" fill="white"/>
<path d="M8.31288 8.60931V9.26778L9.09345 9.04829L8.31288 8.60931Z" fill="white"/>
</svg>
