<svg width="45" height="35" viewBox="0 0 45 35" fill="none" xmlns="http://www.w3.org/2000/svg">
<path d="M10.6161 26.8876V7.4261L18.0751 0.0512132V26.8876C18.0751 27.4339 18.0475 27.9119 17.9922 28.3216C17.8541 28.8952 17.7022 29.5781 17.5364 30.3702C17.3983 31.1896 16.9563 31.9818 16.2104 32.7466C15.4921 33.5387 14.6633 34.1123 13.724 34.4674C12.8124 34.8225 11.7902 35 10.6576 35H7.63252V28.5265H9.37295C9.84259 28.5265 10.1603 28.3489 10.326 27.9939L10.6161 26.8876Z" fill="white"/>
<path d="M36.1117 20.1683V26.8876L32.7137 26.9286C29.0671 26.9286 26.0006 25.6448 23.5143 23.0773C21.0556 20.5097 19.8262 17.4095 19.8262 13.7767C19.8262 10.0073 21.2766 6.78421 24.1773 4.1074C27.078 1.43059 30.5174 0.0921843 34.4956 0.0921843L44.8139 0.0512132L37.8107 7.01639H34.1641C32.2855 7.01639 30.6141 7.67193 29.15 8.98303C27.7134 10.2668 26.9951 11.851 26.9951 13.7357C26.9951 15.4565 27.5753 16.9588 28.7356 18.2426C29.9235 19.5264 31.3877 20.1683 33.1281 20.1683H36.1117Z" fill="white"/>
<path d="M8.37847 7.042L0 0H45L30.4883 7.042L8.37847 7.042Z" fill="white"/>
<path d="M10.6155 6.7219V7.68218L11.7486 7.36209L10.6155 6.7219Z" fill="white"/>
</svg>
