<svg xmlns="http://www.w3.org/2000/svg" width="349" height="349" fill="none" xmlns:v="https://vecta.io/nano"><mask id="A" maskUnits="userSpaceOnUse" x="0" y="0" width="349" height="349" mask-type="alpha"><g fill="#d9d9d9"><circle cx="7.378" cy="7.378" r="7.378"/><circle cx="44.516" cy="7.378" r="7.378"/><circle cx="81.654" cy="7.378" r="7.378"/><circle cx="118.793" cy="7.378" r="7.378"/><circle cx="155.931" cy="7.378" r="7.378"/><circle cx="193.069" cy="7.378" r="7.378"/><circle cx="230.207" cy="7.378" r="7.378"/><circle cx="267.346" cy="7.378" r="7.378"/><circle cx="304.484" cy="7.378" r="7.378"/><circle cx="341.622" cy="7.378" r="7.378"/><circle cx="7.378" cy="44.516" r="7.378"/><circle cx="44.516" cy="44.516" r="7.378"/><circle cx="81.654" cy="44.516" r="7.378"/><circle cx="118.793" cy="44.516" r="7.378"/><circle cx="155.931" cy="44.516" r="7.378"/><circle cx="193.069" cy="44.516" r="7.378"/><circle cx="230.207" cy="44.516" r="7.378"/><circle cx="267.346" cy="44.516" r="7.378"/><circle cx="304.484" cy="44.516" r="7.378"/><circle cx="341.622" cy="44.516" r="7.378"/><circle cx="7.378" cy="81.654" r="7.378"/><circle cx="44.516" cy="81.654" r="7.378"/><circle cx="81.654" cy="81.654" r="7.378"/><circle cx="118.793" cy="81.654" r="7.378"/><circle cx="155.931" cy="81.654" r="7.378"/><circle cx="193.069" cy="81.654" r="7.378"/><circle cx="230.207" cy="81.654" r="7.378"/><circle cx="267.346" cy="81.654" r="7.378"/><circle cx="304.484" cy="81.654" r="7.378"/><circle cx="341.622" cy="81.654" r="7.378"/><circle cx="7.378" cy="118.793" r="7.378"/><circle cx="44.516" cy="118.793" r="7.378"/><circle cx="81.654" cy="118.793" r="7.378"/><circle cx="118.793" cy="118.793" r="7.378"/><circle cx="155.931" cy="118.793" r="7.378"/><circle cx="193.069" cy="118.793" r="7.378"/><circle cx="230.207" cy="118.793" r="7.378"/><circle cx="267.346" cy="118.793" r="7.378"/><circle cx="304.484" cy="118.793" r="7.378"/><circle cx="341.622" cy="118.793" r="7.378"/><circle cx="7.378" cy="155.931" r="7.378"/><circle cx="44.516" cy="155.931" r="7.378"/><circle cx="81.654" cy="155.931" r="7.378"/><circle cx="118.793" cy="155.931" r="7.378"/><circle cx="155.931" cy="155.931" r="7.378"/><circle cx="193.069" cy="155.931" r="7.378"/><circle cx="230.207" cy="155.931" r="7.378"/><circle cx="267.346" cy="155.931" r="7.378"/><circle cx="304.484" cy="155.931" r="7.378"/><circle cx="341.622" cy="155.931" r="7.378"/><circle cx="7.378" cy="193.069" r="7.378"/><circle cx="44.516" cy="193.069" r="7.378"/><circle cx="81.654" cy="193.069" r="7.378"/><circle cx="118.793" cy="193.069" r="7.378"/><circle cx="155.931" cy="193.069" r="7.378"/><circle cx="193.069" cy="193.069" r="7.378"/><circle cx="230.207" cy="193.069" r="7.378"/><circle cx="267.346" cy="193.069" r="7.378"/><circle cx="304.484" cy="193.069" r="7.378"/><circle cx="341.622" cy="193.069" r="7.378"/><circle cx="7.378" cy="230.207" r="7.378"/><circle cx="44.516" cy="230.207" r="7.378"/><circle cx="81.654" cy="230.207" r="7.378"/><circle cx="118.793" cy="230.207" r="7.378"/><circle cx="155.931" cy="230.207" r="7.378"/><circle cx="193.069" cy="230.207" r="7.378"/><circle cx="230.207" cy="230.207" r="7.378"/><circle cx="267.346" cy="230.207" r="7.378"/><circle cx="304.484" cy="230.207" r="7.378"/><circle cx="341.622" cy="230.207" r="7.378"/><circle cx="7.378" cy="267.346" r="7.378"/><circle cx="44.516" cy="267.346" r="7.378"/><circle cx="81.654" cy="267.346" r="7.378"/><circle cx="118.793" cy="267.346" r="7.378"/><circle cx="155.931" cy="267.346" r="7.378"/><circle cx="193.069" cy="267.346" r="7.378"/><circle cx="230.207" cy="267.346" r="7.378"/><circle cx="267.346" cy="267.346" r="7.378"/><circle cx="304.484" cy="267.346" r="7.378"/><circle cx="341.622" cy="267.346" r="7.378"/><circle cx="7.378" cy="304.484" r="7.378"/><circle cx="44.516" cy="304.484" r="7.378"/><circle cx="81.654" cy="304.484" r="7.378"/><circle cx="118.793" cy="304.484" r="7.378"/><circle cx="155.931" cy="304.484" r="7.378"/><circle cx="193.069" cy="304.484" r="7.378"/><circle cx="230.207" cy="304.484" r="7.378"/><circle cx="267.346" cy="304.484" r="7.378"/><circle cx="304.484" cy="304.484" r="7.378"/><circle cx="341.622" cy="304.484" r="7.378"/><circle cx="7.378" cy="341.622" r="7.378"/><circle cx="44.516" cy="341.622" r="7.378"/><circle cx="81.654" cy="341.622" r="7.378"/><circle cx="118.793" cy="341.622" r="7.378"/><circle cx="155.931" cy="341.622" r="7.378"/><circle cx="193.069" cy="341.622" r="7.378"/><circle cx="230.207" cy="341.622" r="7.378"/><circle cx="267.346" cy="341.622" r="7.378"/><circle cx="304.484" cy="341.622" r="7.378"/><circle cx="341.622" cy="341.622" r="7.378"/></g></mask><g mask="url(#A)"><circle cx="171.5" cy="178.5" r="178.5" fill="#2d2d2d"/></g></svg>